<svg width="12" height="13" viewBox="0 0 12 13" fill="none" xmlns="http://www.w3.org/2000/svg">
<path d="M0.616922 12.0022C0.459 12.0022 0.300927 11.9422 0.180827 11.8212C-0.0602758 11.5801 -0.0602758 11.1891 0.180827 10.948L10.9459 0.182893C11.1872 -0.0583603 11.5781 -0.0583603 11.8192 0.182893C12.0603 0.423996 12.0603 0.814885 11.8192 1.05599L1.05392 11.8212C0.932918 11.9422 0.774996 12.0022 0.616922 12.0022Z" fill="#686868"/>
<path d="M11.3829 12.0011C11.225 12.0011 11.0669 11.9411 10.9468 11.8201L0.180827 1.05407C-0.0602757 0.812819 -0.0602757 0.42193 0.180827 0.180827C0.42193 -0.0602758 0.812818 -0.0602758 1.05392 0.180827L11.8192 10.9468C12.0603 11.1879 12.0603 11.579 11.8192 11.8201C11.6982 11.9411 11.5402 12.0011 11.3829 12.0011Z" fill="#686868"/>
</svg>
