<svg width="18" height="18" viewBox="0 0 18 18" fill="none" xmlns="http://www.w3.org/2000/svg">
<path d="M15.5744 0H2.42555C1.08598 0 0 1.08593 0 2.42554V15.5744C0 16.914 1.08594 17.9999 2.42555 17.9999H8.9105L8.92156 11.5677H7.25046C7.03329 11.5677 6.85703 11.3921 6.85619 11.1749L6.84818 9.10158C6.84734 8.88323 7.02413 8.70577 7.24249 8.70577H8.91055V6.70238C8.91055 4.37746 10.3305 3.11152 12.4045 3.11152H14.1063C14.3241 3.11152 14.5007 3.28805 14.5007 3.50583V5.2541C14.5007 5.4718 14.3242 5.64828 14.1066 5.64841L13.0621 5.6489C11.9342 5.6489 11.7158 6.18486 11.7158 6.97142V8.70582H14.1942C14.4304 8.70582 14.6136 8.91202 14.5858 9.14654L14.34 11.2199C14.3165 11.4183 14.1483 11.5678 13.9485 11.5678H11.7269L11.7158 18H15.5745C16.9141 18 18 16.9141 18 15.5745V2.42554C18 1.08593 16.914 0 15.5744 0Z" fill="#101010"/>
</svg>
