<svg width="18" height="18" viewBox="0 0 18 18" fill="none" xmlns="http://www.w3.org/2000/svg">
<path d="M5.3623 0H12.6377C15.5945 0 18 2.40551 18 5.3623V12.6377C18 15.5945 15.5945 18 12.6377 18H5.3623C2.40551 18 0 15.5945 0 12.6377V5.3623C3.24249e-05 2.40551 2.40555 0 5.3623 0ZM1.8108 12.6377C1.8108 14.5991 3.40088 16.1892 5.3623 16.1892H12.6377C14.5991 16.1892 16.1892 14.5991 16.1892 12.6377V5.3623C16.1892 3.40084 14.5991 1.8108 12.6377 1.8108H5.3623C3.40088 1.8108 1.8108 3.40084 1.8108 5.3623V12.6377Z" fill="#101010"/>
<path d="M9 4.5C11.4813 4.5 13.5 6.5187 13.5 8.99998C13.5 11.4813 11.4813 13.5 9 13.5C6.5187 13.5 4.5 11.4813 4.5 8.99998C4.5 6.51867 6.5187 4.5 9 4.5ZM9 11.7497C10.5186 11.7497 11.7497 10.5186 11.7497 9.00002C11.7497 7.4814 10.5186 6.25034 9 6.25034C7.48139 6.25034 6.25034 7.4814 6.25034 9.00002C6.25034 10.5186 7.48142 11.7497 9 11.7497Z" fill="#101010"/>
<path d="M4.125 5.25C3.50368 5.25 3 4.74632 3 4.125C3 3.50368 3.50368 3 4.125 3C4.74632 3 5.25 3.50368 5.25 4.125C5.25 4.74632 4.74632 5.25 4.125 5.25Z" fill="#101010"/>
</svg>
