<svg width="190" height="18" viewBox="0 0 190 18" fill="none" xmlns="http://www.w3.org/2000/svg">
<path d="M108.455 4.23877H107.072V13.9584H108.455V4.23877Z" fill="#474C5F"/>
<path d="M97.3105 4.23877H95.8271L99.9365 14.1555H100.177L100.798 12.6375L97.3105 4.23877Z" fill="#474C5F"/>
<path d="M108.616 0.571777H106.912V2.24757H108.616V0.571777Z" fill="#474C5F"/>
<path d="M104.186 5.95399L104.887 4.23877H103.144L102.422 5.95399H104.186Z" fill="#474C5F"/>
<path d="M77.0247 0.630859H75.6416V13.9584H77.0247V0.630859Z" fill="#474C5F"/>
<path d="M80.6129 4.0415C79.0494 4.0415 77.546 5.26385 76.7041 5.9736L77.0248 6.28904C77.0248 6.28904 78.6886 5.04698 80.1118 5.04698C81.5952 5.04698 82.3368 5.61872 82.3368 7.03822V7.17622V13.978H83.72V7.03822C83.72 4.92869 82.4571 4.0415 80.6129 4.0415Z" fill="#474C5F"/>
<path d="M41.6043 4.23877H40.2212V13.9584H41.6043V4.23877Z" fill="#474C5F"/>
<path d="M36.6534 14.2354C38.217 14.2354 39.7204 12.9539 40.5623 12.2441L40.2416 11.9287C40.2416 11.9287 38.5778 13.1707 37.1546 13.1707C35.6712 13.1707 34.9295 12.599 34.9295 11.1795V11.0415V4.23975H33.5264V11.1795C33.5264 13.2693 34.7892 14.2354 36.6534 14.2354Z" fill="#474C5F"/>
<path d="M72.4544 7.37375C73.0191 7.37375 73.4768 6.92358 73.4768 6.36827C73.4768 5.81296 73.0191 5.36279 72.4544 5.36279C71.8898 5.36279 71.4321 5.81296 71.4321 6.36827C71.4321 6.92358 71.8898 7.37375 72.4544 7.37375Z" fill="#474C5F"/>
<path d="M70.0287 13.4064C68.6055 13.4064 66.7012 12.1841 66.7012 9.08878C66.7012 5.08659 69.0064 4.10083 71.7326 5.06688L72.0533 4.75144C72.0533 4.75144 71.2114 4.02197 69.9486 4.02197C67.042 4.02197 65.1577 6.28922 65.1577 9.08878C65.1577 12.4207 66.9217 14.1556 70.0087 14.1556C71.9731 14.1556 72.8551 13.1304 73.3362 12.4404L72.9554 12.1249C72.2939 12.7755 71.5321 13.4064 70.0287 13.4064Z" fill="#474C5F"/>
<path d="M117.977 7.37375C118.542 7.37375 118.999 6.92358 118.999 6.36827C118.999 5.81296 118.542 5.36279 117.977 5.36279C117.412 5.36279 116.955 5.81296 116.955 6.36827C116.955 6.92358 117.412 7.37375 117.977 7.37375Z" fill="#474C5F"/>
<path d="M115.552 13.4064C114.128 13.4064 112.224 12.1841 112.224 9.08878C112.224 5.08659 114.529 4.10083 117.256 5.06688L117.576 4.75144C117.576 4.75144 116.734 4.02197 115.471 4.02197C112.565 4.04169 110.701 6.30894 110.701 9.08878C110.701 12.4207 112.465 14.1556 115.552 14.1556C117.516 14.1556 118.398 13.1304 118.879 12.4404L118.498 12.1249C117.817 12.7755 117.055 13.4064 115.552 13.4064Z" fill="#474C5F"/>
<path d="M122.628 0.630859H121.245V13.9584H122.628V0.630859Z" fill="#474C5F"/>
<path d="M126.216 4.0415C124.652 4.0415 123.149 5.26385 122.307 5.9736L122.628 6.28904C122.628 6.28904 124.292 5.04698 125.715 5.04698C127.198 5.04698 127.94 5.61872 127.94 7.03822V7.17622V13.978H129.323V7.03822C129.323 4.92869 128.06 4.0415 126.216 4.0415Z" fill="#474C5F"/>
<path d="M26.7911 4.0415C24.0449 4.0415 22.5215 6.30875 22.5215 9.10832C22.5215 11.9079 24.0449 14.1751 26.7911 14.1751C29.5373 14.1751 30.7802 11.9079 30.7802 9.10832C30.7802 6.30875 29.5373 4.0415 26.7911 4.0415ZM26.29 13.3471C24.2454 13.3471 23.0427 11.4544 23.0427 9.10832C23.0427 6.7622 24.2454 4.86954 26.29 4.86954C28.3346 4.86954 29.2367 6.7622 29.2367 9.10832C29.2367 11.4347 28.3346 13.3471 26.29 13.3471Z" fill="#474C5F"/>
<path d="M23.3831 4.23877H22V17.8423H23.3831V4.23877Z" fill="#474C5F"/>
<path d="M54.1525 5.87513L54.8341 4.23877H53.1503L52.4888 5.87513H54.1525Z" fill="#474C5F"/>
<path d="M48.8808 4.0415H48.4398C46.3952 4.14008 44.7515 5.55958 44.7515 7.29452C44.7515 9.04917 46.3751 10.4687 48.4398 10.5672H48.8808C50.9254 10.4687 52.5691 9.04917 52.5691 7.29452C52.5691 5.55958 50.9254 4.14008 48.8808 4.0415ZM48.8808 10.1335H48.4398C47.1769 9.9955 46.1747 8.79287 46.1747 7.31423C46.1747 5.83559 47.1769 4.61325 48.4398 4.49495H48.8808C50.1437 4.63296 51.1459 5.83559 51.1459 7.31423C51.1459 8.79287 50.1437 9.9955 48.8808 10.1335Z" fill="#474C5F"/>
<path d="M50.6448 12.598H46.7761C46.1146 12.598 45.854 12.2629 45.854 11.8291C45.854 11.0602 46.5355 10.5674 46.5355 10.5674L47.0166 10.1928L46.6558 9.83789L46.1547 10.1928C46.1547 10.1928 44.7314 11.1588 44.7314 12.2037C44.7314 13.1698 45.5934 13.9584 46.7961 13.9584H50.6649C52.5491 13.9584 52.5291 15.1413 52.5291 15.5553C52.5291 16.4425 51.8275 17.172 51.2863 17.586L51.7072 18C52.5892 17.4283 53.7518 16.4819 53.7518 15.1807C53.7318 13.0515 51.9277 12.598 50.6448 12.598Z" fill="#474C5F"/>
<path d="M90.4551 13.4064C89.0319 13.4064 87.4082 12.1841 87.4082 9.08878C87.4082 8.99021 87.4082 8.91135 87.4082 8.81277H93.0209H93.0811H94.5644C94.4842 6.15122 93.3417 4.02197 90.3549 4.02197C87.2479 4.02197 85.8647 6.28922 85.8647 9.08878C85.8647 12.4207 87.3481 14.1556 90.4351 14.1556C92.3995 14.1556 93.5622 13.1304 94.0432 12.4404L93.6624 12.1249C93.0009 12.7755 91.9585 13.4064 90.4551 13.4064ZM90.3549 4.47542C92.1189 4.47542 92.8405 6.03293 93.0009 8.12274L87.4483 8.37904C87.6087 6.17093 88.5107 4.47542 90.3549 4.47542Z" fill="#474C5F"/>
<path d="M61.8903 4.69211C61.3891 4.19923 60.8078 4.0415 60.2065 4.0415C58.4826 4.0415 57.5605 4.77097 57.5605 4.77097L57.8812 5.08641C60.1664 4.1598 61.309 5.53986 61.309 6.95936V8.00426C58.5026 9.02945 55.3354 9.48291 55.3354 11.7699C55.3354 13.3865 56.7186 14.1751 58.0416 14.1751C59.3646 14.1751 60.7477 13.1105 61.309 12.2825V13.978H62.6921V6.95936C62.7121 5.93417 62.4115 5.18499 61.8903 4.69211ZM61.329 11.829C60.6274 12.3416 59.3445 13.2288 58.4024 13.2288C57.2999 13.2288 56.899 12.381 56.899 11.7699C56.899 10.2124 58.5227 9.7392 61.329 8.45771V11.829Z" fill="#474C5F"/>
<path d="M56.8988 7.37326C57.4634 7.37326 57.9211 6.92309 57.9211 6.36778C57.9211 5.81247 57.4634 5.3623 56.8988 5.3623C56.3342 5.3623 55.8765 5.81247 55.8765 6.36778C55.8765 6.92309 56.3342 7.37326 56.8988 7.37326Z" fill="#474C5F"/>
<path d="M177.873 3.60791H176.49V13.3275H177.873V3.60791Z" fill="#B73754"/>
<path d="M177.993 0.059082H176.369V1.65602H177.993V0.059082Z" fill="#B73754"/>
<path d="M168.03 3.39111C165.284 3.39111 164.041 5.65836 164.041 8.45793C164.041 11.2575 165.284 13.5247 168.03 13.5247C170.776 13.5247 172.3 11.2575 172.3 8.45793C172.3 5.65836 170.776 3.39111 168.03 3.39111ZM168.551 12.7164C166.507 12.7164 165.605 10.8238 165.605 8.47764C165.605 6.13153 166.507 4.23887 168.551 4.23887C170.596 4.23887 171.799 6.13153 171.799 8.47764C171.779 10.804 170.596 12.7164 168.551 12.7164Z" fill="#B73754"/>
<path d="M172.821 0H171.438V13.3275H172.821V0Z" fill="#B73754"/>
<path d="M161.075 3.60791H159.691V13.3275H161.075V3.60791Z" fill="#B73754"/>
<path d="M156.104 13.5838C157.667 13.5838 159.171 12.3023 160.012 11.5926L159.692 11.2771C159.692 11.2771 158.028 12.5192 156.605 12.5192C155.121 12.5192 154.38 11.9474 154.38 10.528V10.3899V3.60791H152.997V10.5477C152.997 12.6178 154.259 13.5838 156.104 13.5838Z" fill="#B73754"/>
<path d="M185.51 3.39111C182.403 3.39111 181.02 5.65836 181.02 8.45793C181.02 11.2575 182.423 13.5247 185.51 13.5247C188.617 13.5247 190 11.2575 190 8.45793C190 5.65836 188.597 3.39111 185.51 3.39111ZM185.49 13.091C183.445 13.091 182.543 11.0209 182.543 8.47764C182.543 5.93438 183.445 3.86428 185.49 3.86428C187.534 3.86428 188.456 5.93438 188.456 8.47764C188.456 11.0209 187.534 13.091 185.49 13.091Z" fill="#B73754"/>
<path d="M140.468 7.6297C138.804 6.82138 137.902 6.56508 137.902 5.40188C137.902 4.55413 138.824 4.06125 139.726 4.06125C140.849 4.06125 142.513 4.73156 142.513 4.73156C142.513 4.21897 142.513 4.19925 142.513 4.19925C142.513 4.19925 141.53 3.41064 139.726 3.41064C138.022 3.41064 136.679 4.5147 136.679 5.85533C136.679 7.27483 137.461 7.90571 139.325 8.75347C141.29 9.64065 141.771 10.0547 141.771 11.0404C141.771 12.2036 140.468 12.874 139.405 12.874C137.481 12.874 136.599 12.1051 136.599 12.1051V12.6965C136.599 12.6965 137.14 13.5246 139.405 13.5246C141.35 13.5246 143.174 12.7359 143.174 10.6067C143.194 9.10834 142.112 8.43803 140.468 7.6297Z" fill="#B73754"/>
<path d="M150.752 3.58806H147.605V1.16309H146.222V3.60777H145.44V4.31752H146.202V10.6067C146.202 11.6319 146.502 12.381 147.024 12.8739C147.525 13.3668 148.106 13.5245 148.707 13.5245C149.529 13.5245 150.311 13.2682 150.752 13.0514V12.4796C148.367 13.5048 147.605 12.0262 147.605 10.6067V4.31752H150.752V3.58806Z" fill="#B73754"/>
<path d="M0 8.99387C0 12.9946 3.37839 16.2248 7.43839 15.9877C10.9353 15.7803 13.7507 12.9353 13.9877 9.43839C14.2248 5.37839 10.9946 2 6.99387 2C3.11168 2 0 5.11168 0 8.99387Z" fill="#B73754"/>
</svg>
