<svg width="36" height="36" viewBox="0 0 36 36" fill="none" xmlns="http://www.w3.org/2000/svg">
<circle opacity="0.7" cx="18" cy="18" r="18" fill="white"/>
<g clip-path="url(#clip0)">
<path d="M25.4247 17.3184L15.6111 11.652C15.4916 11.5793 15.3549 11.5396 15.215 11.5371C15.0751 11.5346 14.937 11.5693 14.8149 11.6377C14.6928 11.706 14.5911 11.8056 14.5202 11.9262C14.4492 12.0468 14.4116 12.1841 14.4111 12.324V23.676C14.4112 23.8145 14.4477 23.9505 14.5169 24.0703C14.5862 24.1902 14.6857 24.2898 14.8056 24.3591C14.9254 24.4284 15.0614 24.465 15.1998 24.4651C15.3383 24.4653 15.4743 24.429 15.5943 24.36L25.4343 18.6816C25.5541 18.6122 25.6533 18.5123 25.722 18.3921C25.7907 18.2719 25.8263 18.1357 25.8253 17.9972C25.8244 17.8588 25.7868 17.7231 25.7164 17.6039C25.6461 17.4847 25.5454 17.3862 25.4247 17.3184ZM25.0911 18.1032L15.2511 23.7792C15.2331 23.7899 15.2126 23.7956 15.1917 23.7957C15.1707 23.7958 15.1501 23.7903 15.132 23.7798C15.1139 23.7693 15.099 23.7541 15.0887 23.7359C15.0784 23.7176 15.0732 23.697 15.0735 23.676V12.324C15.0732 12.3031 15.0784 12.2824 15.0887 12.2642C15.099 12.246 15.1139 12.2308 15.132 12.2203C15.1501 12.2098 15.1707 12.2043 15.1917 12.2044C15.2126 12.2045 15.2331 12.2101 15.2511 12.2208L25.0911 17.8968C25.1097 17.9069 25.1251 17.9219 25.1359 17.94C25.1467 17.9582 25.1523 17.9789 25.1523 18C25.1523 18.0211 25.1467 18.0419 25.1359 18.06C25.1251 18.0782 25.1097 18.0931 25.0911 18.1032Z" fill="#101010"/>
</g>
<defs>
<clipPath id="clip0">
<rect width="24" height="24" fill="white" transform="translate(7 6)"/>
</clipPath>
</defs>
</svg>
