<svg width="203" height="19" viewBox="0 0 203 19" fill="none" xmlns="http://www.w3.org/2000/svg">
<path d="M121.455 5.23877H120.072V14.9584H121.455V5.23877Z" fill="#474C5F"/>
<path d="M110.311 5.23877H108.827L112.936 15.1555H113.177L113.798 13.6375L110.311 5.23877Z" fill="#474C5F"/>
<path d="M121.616 1.57178H119.912V3.24757H121.616V1.57178Z" fill="#474C5F"/>
<path d="M117.186 6.95399L117.887 5.23877H116.144L115.422 6.95399H117.186Z" fill="#474C5F"/>
<path d="M90.0247 1.63086H88.6416V14.9584H90.0247V1.63086Z" fill="#474C5F"/>
<path d="M93.6129 5.0415C92.0494 5.0415 90.546 6.26385 89.7041 6.9736L90.0248 7.28904C90.0248 7.28904 91.6886 6.04698 93.1118 6.04698C94.5952 6.04698 95.3368 6.61872 95.3368 8.03822V8.17622V14.978H96.72V8.03822C96.72 5.92869 95.4571 5.0415 93.6129 5.0415Z" fill="#474C5F"/>
<path d="M54.6043 5.23877H53.2212V14.9584H54.6043V5.23877Z" fill="#474C5F"/>
<path d="M49.6534 15.2354C51.217 15.2354 52.7204 13.9539 53.5623 13.2441L53.2416 12.9287C53.2416 12.9287 51.5778 14.1707 50.1546 14.1707C48.6712 14.1707 47.9295 13.599 47.9295 12.1795V12.0415V5.23975H46.5264V12.1795C46.5264 14.2693 47.7892 15.2354 49.6534 15.2354Z" fill="#474C5F"/>
<path d="M85.4544 8.37375C86.0191 8.37375 86.4768 7.92358 86.4768 7.36827C86.4768 6.81296 86.0191 6.36279 85.4544 6.36279C84.8898 6.36279 84.4321 6.81296 84.4321 7.36827C84.4321 7.92358 84.8898 8.37375 85.4544 8.37375Z" fill="#474C5F"/>
<path d="M83.0287 14.4064C81.6055 14.4064 79.7012 13.1841 79.7012 10.0888C79.7012 6.08659 82.0064 5.10083 84.7326 6.06688L85.0533 5.75144C85.0533 5.75144 84.2114 5.02197 82.9486 5.02197C80.042 5.02197 78.1577 7.28922 78.1577 10.0888C78.1577 13.4207 79.9217 15.1556 83.0087 15.1556C84.9731 15.1556 85.8551 14.1304 86.3362 13.4404L85.9554 13.1249C85.2939 13.7755 84.5321 14.4064 83.0287 14.4064Z" fill="#474C5F"/>
<path d="M130.977 8.37375C131.542 8.37375 131.999 7.92358 131.999 7.36827C131.999 6.81296 131.542 6.36279 130.977 6.36279C130.412 6.36279 129.955 6.81296 129.955 7.36827C129.955 7.92358 130.412 8.37375 130.977 8.37375Z" fill="#474C5F"/>
<path d="M128.552 14.4064C127.128 14.4064 125.224 13.1841 125.224 10.0888C125.224 6.08659 127.529 5.10083 130.256 6.06688L130.576 5.75144C130.576 5.75144 129.734 5.02197 128.471 5.02197C125.565 5.04169 123.701 7.30894 123.701 10.0888C123.701 13.4207 125.465 15.1556 128.552 15.1556C130.516 15.1556 131.398 14.1304 131.879 13.4404L131.498 13.1249C130.817 13.7755 130.055 14.4064 128.552 14.4064Z" fill="#474C5F"/>
<path d="M135.628 1.63086H134.245V14.9584H135.628V1.63086Z" fill="#474C5F"/>
<path d="M139.216 5.0415C137.652 5.0415 136.149 6.26385 135.307 6.9736L135.628 7.28904C135.628 7.28904 137.292 6.04698 138.715 6.04698C140.198 6.04698 140.94 6.61872 140.94 8.03822V8.17622V14.978H142.323V8.03822C142.323 5.92869 141.06 5.0415 139.216 5.0415Z" fill="#474C5F"/>
<path d="M39.7911 5.0415C37.0449 5.0415 35.5215 7.30875 35.5215 10.1083C35.5215 12.9079 37.0449 15.1751 39.7911 15.1751C42.5373 15.1751 43.7802 12.9079 43.7802 10.1083C43.7802 7.30875 42.5373 5.0415 39.7911 5.0415ZM39.29 14.3471C37.2454 14.3471 36.0427 12.4544 36.0427 10.1083C36.0427 7.7622 37.2454 5.86954 39.29 5.86954C41.3346 5.86954 42.2367 7.7622 42.2367 10.1083C42.2367 12.4347 41.3346 14.3471 39.29 14.3471Z" fill="#474C5F"/>
<path d="M36.3831 5.23877H35V18.8423H36.3831V5.23877Z" fill="#474C5F"/>
<path d="M67.1525 6.87513L67.8341 5.23877H66.1503L65.4888 6.87513H67.1525Z" fill="#474C5F"/>
<path d="M61.8808 5.0415H61.4398C59.3952 5.14008 57.7515 6.55958 57.7515 8.29452C57.7515 10.0492 59.3751 11.4687 61.4398 11.5672H61.8808C63.9254 11.4687 65.5691 10.0492 65.5691 8.29452C65.5691 6.55958 63.9254 5.14008 61.8808 5.0415ZM61.8808 11.1335H61.4398C60.1769 10.9955 59.1747 9.79287 59.1747 8.31423C59.1747 6.83559 60.1769 5.61325 61.4398 5.49495H61.8808C63.1437 5.63296 64.1459 6.83559 64.1459 8.31423C64.1459 9.79287 63.1437 10.9955 61.8808 11.1335Z" fill="#474C5F"/>
<path d="M63.6448 13.598H59.7761C59.1146 13.598 58.854 13.2629 58.854 12.8291C58.854 12.0602 59.5355 11.5674 59.5355 11.5674L60.0166 11.1928L59.6558 10.8379L59.1547 11.1928C59.1547 11.1928 57.7314 12.1588 57.7314 13.2037C57.7314 14.1698 58.5934 14.9584 59.7961 14.9584H63.6649C65.5491 14.9584 65.5291 16.1413 65.5291 16.5553C65.5291 17.4425 64.8275 18.172 64.2863 18.586L64.7072 19C65.5892 18.4283 66.7518 17.4819 66.7518 16.1807C66.7318 14.0515 64.9277 13.598 63.6448 13.598Z" fill="#474C5F"/>
<path d="M103.455 14.4064C102.032 14.4064 100.408 13.1841 100.408 10.0888C100.408 9.99021 100.408 9.91135 100.408 9.81277H106.021H106.081H107.564C107.484 7.15122 106.342 5.02197 103.355 5.02197C100.248 5.02197 98.8647 7.28922 98.8647 10.0888C98.8647 13.4207 100.348 15.1556 103.435 15.1556C105.4 15.1556 106.562 14.1304 107.043 13.4404L106.662 13.1249C106.001 13.7755 104.959 14.4064 103.455 14.4064ZM103.355 5.47542C105.119 5.47542 105.841 7.03293 106.001 9.12274L100.448 9.37904C100.609 7.17093 101.511 5.47542 103.355 5.47542Z" fill="#474C5F"/>
<path d="M74.8903 5.69211C74.3891 5.19923 73.8078 5.0415 73.2065 5.0415C71.4826 5.0415 70.5605 5.77097 70.5605 5.77097L70.8812 6.08641C73.1664 5.1598 74.309 6.53986 74.309 7.95936V9.00426C71.5026 10.0295 68.3354 10.4829 68.3354 12.7699C68.3354 14.3865 69.7186 15.1751 71.0416 15.1751C72.3646 15.1751 73.7477 14.1105 74.309 13.2825V14.978H75.6921V7.95936C75.7121 6.93417 75.4115 6.18499 74.8903 5.69211ZM74.329 12.829C73.6274 13.3416 72.3445 14.2288 71.4024 14.2288C70.2999 14.2288 69.899 13.381 69.899 12.7699C69.899 11.2124 71.5227 10.7392 74.329 9.45771V12.829Z" fill="#474C5F"/>
<path d="M69.8988 8.37326C70.4634 8.37326 70.9211 7.92309 70.9211 7.36778C70.9211 6.81247 70.4634 6.3623 69.8988 6.3623C69.3342 6.3623 68.8765 6.81247 68.8765 7.36778C68.8765 7.92309 69.3342 8.37326 69.8988 8.37326Z" fill="#474C5F"/>
<path d="M190.873 4.60791H189.49V14.3275H190.873V4.60791Z" fill="#B73754"/>
<path d="M190.993 1.05908H189.369V2.65602H190.993V1.05908Z" fill="#B73754"/>
<path d="M181.03 4.39111C178.284 4.39111 177.041 6.65836 177.041 9.45793C177.041 12.2575 178.284 14.5247 181.03 14.5247C183.776 14.5247 185.3 12.2575 185.3 9.45793C185.3 6.65836 183.776 4.39111 181.03 4.39111ZM181.551 13.7164C179.507 13.7164 178.605 11.8238 178.605 9.47764C178.605 7.13153 179.507 5.23887 181.551 5.23887C183.596 5.23887 184.799 7.13153 184.799 9.47764C184.779 11.804 183.596 13.7164 181.551 13.7164Z" fill="#B73754"/>
<path d="M185.821 1H184.438V14.3275H185.821V1Z" fill="#B73754"/>
<path d="M174.075 4.60791H172.691V14.3275H174.075V4.60791Z" fill="#B73754"/>
<path d="M169.104 14.5838C170.667 14.5838 172.171 13.3023 173.012 12.5926L172.692 12.2771C172.692 12.2771 171.028 13.5192 169.605 13.5192C168.121 13.5192 167.38 12.9474 167.38 11.528V11.3899V4.60791H165.997V11.5477C165.997 13.6178 167.259 14.5838 169.104 14.5838Z" fill="#B73754"/>
<path d="M198.51 4.39111C195.403 4.39111 194.02 6.65836 194.02 9.45793C194.02 12.2575 195.423 14.5247 198.51 14.5247C201.617 14.5247 203 12.2575 203 9.45793C203 6.65836 201.597 4.39111 198.51 4.39111ZM198.49 14.091C196.445 14.091 195.543 12.0209 195.543 9.47764C195.543 6.93438 196.445 4.86428 198.49 4.86428C200.534 4.86428 201.456 6.93438 201.456 9.47764C201.456 12.0209 200.534 14.091 198.49 14.091Z" fill="#B73754"/>
<path d="M153.468 8.6297C151.804 7.82138 150.902 7.56508 150.902 6.40188C150.902 5.55413 151.824 5.06125 152.726 5.06125C153.849 5.06125 155.513 5.73156 155.513 5.73156C155.513 5.21897 155.513 5.19925 155.513 5.19925C155.513 5.19925 154.53 4.41064 152.726 4.41064C151.022 4.41064 149.679 5.5147 149.679 6.85533C149.679 8.27483 150.461 8.90571 152.325 9.75347C154.29 10.6407 154.771 11.0547 154.771 12.0404C154.771 13.2036 153.468 13.874 152.405 13.874C150.481 13.874 149.599 13.1051 149.599 13.1051V13.6965C149.599 13.6965 150.14 14.5246 152.405 14.5246C154.35 14.5246 156.174 13.7359 156.174 11.6067C156.194 10.1083 155.112 9.43803 153.468 8.6297Z" fill="#B73754"/>
<path d="M163.752 4.58806H160.605V2.16309H159.222V4.60777H158.44V5.31752H159.202V11.6067C159.202 12.6319 159.502 13.381 160.024 13.8739C160.525 14.3668 161.106 14.5245 161.707 14.5245C162.529 14.5245 163.311 14.2682 163.752 14.0514V13.4796C161.367 14.5048 160.605 13.0262 160.605 11.6067V5.31752H163.752V4.58806Z" fill="#B73754"/>
<path d="M0 9.49168C0 14.9212 4.58496 19.3051 10.095 18.9834C14.8408 18.7018 18.6616 14.8408 18.9834 10.095C19.3051 4.58496 14.9212 0 9.49168 0C4.22299 0 0 4.22299 0 9.49168Z" fill="#B73754"/>
</svg>
